<svg xmlns="http://www.w3.org/2000/svg" viewBox="0 0 100 101.3"><defs><style>.cls-1,.cls-2{fill:#fff;}.cls-1{opacity:0.75;}</style></defs><title>Asset 4</title><g id="Layer_2" data-name="Layer 2"><g id="Layer_1-2" data-name="Layer 1"><circle class="cls-1" cx="7.41" cy="7.41" r="7.41"/><circle class="cls-2" cx="23.51" cy="12.34" r="7.41"/><circle class="cls-2" cx="39.73" cy="18.57" r="7.41"/><circle class="cls-2" cx="22.69" cy="52.31" r="7.41"/><circle class="cls-2" cx="52.83" cy="12.34" r="4.87"/><circle class="cls-2" cx="18.64" cy="66.65" r="4.87"/><circle class="cls-2" cx="6.54" cy="89.5" r="4.87"/><circle class="cls-2" cx="6.54" cy="98.89" r="2.41"/><circle class="cls-1" cx="7.41" cy="24.33" r="7.41"/><circle class="cls-2" cx="25.75" cy="33.27" r="10.94"/><circle class="cls-1" cx="7.41" cy="41.26" r="7.41"/><circle class="cls-2" cx="7.41" cy="58.19" r="7.41"/><circle class="cls-2" cx="7.41" cy="75.11" r="7.41"/><path class="cls-2" d="M40.52,68.88,33.3,50.61h3.19l5.78,15.58,5.81-15.58H51L43.81,68.88Z"/><path class="cls-2" d="M54.07,47.18V43.32h3.08v3.86Zm0,21.7V50.61h3.08V68.88Z"/><path class="cls-2" d="M78,68.88H74.9V58.66a7.82,7.82,0,0,0-.9-4.27,3,3,0,0,0-2.71-1.33,5.08,5.08,0,0,0-1.89.37,7.32,7.32,0,0,0-1.79,1,7,7,0,0,0-1.47,1.51,6.36,6.36,0,0,0-.94,1.92v11H62.12V50.61h2.8v3.92a8,8,0,0,1,3.13-3.08,9,9,0,0,1,4.47-1.16,5.32,5.32,0,0,1,2.62.58,4.4,4.4,0,0,1,1.68,1.61,7.3,7.3,0,0,1,.9,2.43A17.08,17.08,0,0,1,78,58Z"/><path class="cls-2" d="M90.76,69.23a9,9,0,0,1-6.67-2.83,9.45,9.45,0,0,1-1.88-3,10,10,0,0,1-.66-3.61,9.85,9.85,0,0,1,.68-3.64,9.72,9.72,0,0,1,1.89-3A9.12,9.12,0,0,1,87,51.06a9,9,0,0,1,3.73-.77,9.05,9.05,0,0,1,6.67,2.84,9.72,9.72,0,0,1,1.89,3,10.07,10.07,0,0,1,0,7.25,9.07,9.07,0,0,1-4.81,5.07A8.91,8.91,0,0,1,90.76,69.23ZM84.7,59.81a7.49,7.49,0,0,0,.47,2.67,7,7,0,0,0,1.3,2.13,6.14,6.14,0,0,0,1.92,1.44,5.47,5.47,0,0,0,2.37.52,5.39,5.39,0,0,0,2.36-.52,6.13,6.13,0,0,0,1.94-1.46,6.79,6.79,0,0,0,1.32-2.17,7.59,7.59,0,0,0,.47-2.68,7.49,7.49,0,0,0-.47-2.64,6.9,6.9,0,0,0-1.32-2.17,6.1,6.1,0,0,0-1.94-1.45A5.4,5.4,0,0,0,90.76,53a5.22,5.22,0,0,0-2.37.55A6.23,6.23,0,0,0,86.47,55a6.93,6.93,0,0,0-1.3,2.17A7.57,7.57,0,0,0,84.7,59.81Z"/><path class="cls-2" d="M42.67,91.11a6.66,6.66,0,0,1-2.42-.43,6.12,6.12,0,0,1-1.94-1.21A5.61,5.61,0,0,1,37,87.67a5.29,5.29,0,0,1-.48-2.26,4.8,4.8,0,0,1,.56-2.3,5.34,5.34,0,0,1,1.6-1.76,8.06,8.06,0,0,1,2.45-1.16,10.86,10.86,0,0,1,3.1-.42,14.64,14.64,0,0,1,2.69.25,12.26,12.26,0,0,1,2.42.66V79.21a4.41,4.41,0,0,0-4.83-4.8,10.26,10.26,0,0,0-5.82,2.14l-1-2a12.68,12.68,0,0,1,7.11-2.38,7.8,7.8,0,0,1,5.61,1.93,7.12,7.12,0,0,1,2,5.43V87c0,.73.32,1.1,1,1.12v2.66l-.81.11q-.31,0-.66,0a2,2,0,0,1-1.46-.54,2.23,2.23,0,0,1-.64-1.31l-.07-1.3a7.9,7.9,0,0,1-3.1,2.51A9.56,9.56,0,0,1,42.67,91.11Zm.81-2.31a7.64,7.64,0,0,0,3.06-.61,5.06,5.06,0,0,0,2.15-1.63,1.92,1.92,0,0,0,.67-1.36V82.5a12.8,12.8,0,0,0-4.66-.87,6.54,6.54,0,0,0-3.76,1,3,3,0,0,0-1.46,2.55,3.43,3.43,0,0,0,1.14,2.59,3.84,3.84,0,0,0,1.28.77A4.34,4.34,0,0,0,43.48,88.8Z"/><path class="cls-2" d="M67.21,91.11a7.2,7.2,0,0,1-4-1.12,8.42,8.42,0,0,1-2.74-2.83V98.22H57.37V72.49h2.74v3.43a8.47,8.47,0,0,1,2.81-2.71,7.38,7.38,0,0,1,3.84-1,7.81,7.81,0,0,1,3.46.77A8.73,8.73,0,0,1,73,75a9.61,9.61,0,0,1,1.81,3,10,10,0,0,1,.65,3.57,11.24,11.24,0,0,1-.6,3.69,9.28,9.28,0,0,1-1.68,3,8.14,8.14,0,0,1-2.59,2A7.37,7.37,0,0,1,67.21,91.11Zm-.94-2.66a5.32,5.32,0,0,0,2.47-.57,6.25,6.25,0,0,0,1.89-1.54,7.17,7.17,0,0,0,1.2-2.19,7.75,7.75,0,0,0,.42-2.52A7,7,0,0,0,71.76,79a6.93,6.93,0,0,0-1.33-2.17,6.31,6.31,0,0,0-2-1.47A5.72,5.72,0,0,0,66,74.83a5.06,5.06,0,0,0-1.74.34,7.88,7.88,0,0,0-1.68.87,6,6,0,0,0-1.36,1.3,3.74,3.74,0,0,0-.75,1.59v5.22a7.81,7.81,0,0,0,1,1.7,6.74,6.74,0,0,0,1.36,1.36,6.35,6.35,0,0,0,1.65.91A5.1,5.1,0,0,0,66.27,88.45Z"/><path class="cls-2" d="M89,91.11A7.17,7.17,0,0,1,85,90a8.35,8.35,0,0,1-2.75-2.83V98.22H79.19V72.49h2.73v3.43a8.41,8.41,0,0,1,2.82-2.71,7.31,7.31,0,0,1,3.83-1,7.81,7.81,0,0,1,3.46.77A8.65,8.65,0,0,1,94.77,75a9.59,9.59,0,0,1,1.8,3,10,10,0,0,1,.65,3.57,11.24,11.24,0,0,1-.6,3.69,9.28,9.28,0,0,1-1.68,3,8.14,8.14,0,0,1-2.59,2A7.34,7.34,0,0,1,89,91.11Zm-.94-2.66a5.32,5.32,0,0,0,2.47-.57,6.25,6.25,0,0,0,1.89-1.54,7.19,7.19,0,0,0,1.21-2.19,7.75,7.75,0,0,0,.42-2.52A7.2,7.2,0,0,0,93.58,79a7,7,0,0,0-1.34-2.17,6.2,6.2,0,0,0-2-1.47,5.69,5.69,0,0,0-2.47-.55,5,5,0,0,0-1.73.34,7.72,7.72,0,0,0-1.69.87A6,6,0,0,0,83,77.34a3.74,3.74,0,0,0-.75,1.59v5.22a7.81,7.81,0,0,0,1,1.7,6.74,6.74,0,0,0,1.36,1.36,6.51,6.51,0,0,0,1.65.91A5.1,5.1,0,0,0,88.08,88.45Z"/></g></g></svg>