<svg xmlns="http://www.w3.org/2000/svg" viewBox="0 0 16.84 31.56"><defs><style>.cls-1{fill:#fff;}</style></defs><title>Asset 4</title><g id="Layer_2" data-name="Layer 2"><g id="Layer_1-2" data-name="Layer 1"><path class="cls-1" d="M3.42,29a5.24,5.24,0,0,1-.87-.09A3.18,3.18,0,0,1,.17,27.07a1.24,1.24,0,0,1,0-1.18c1.2-1.71,1.13-3.52,1-5.44a19.59,19.59,0,0,1,0-2.65,19.45,19.45,0,0,1,1.08-5.31,4.51,4.51,0,0,0,.13-2.2,6.17,6.17,0,0,1,0-1.87,24,24,0,0,1,2.4-6.8C5.46.48,6.08-.36,7.73.15A5.43,5.43,0,0,1,11.06,1.6a6.8,6.8,0,0,0,2,1.18.57.57,0,0,1,.31.27,1.09,1.09,0,0,1,0,1.18,1.1,1.1,0,0,0-.12.38,2.37,2.37,0,0,0,.44.06c.67,0,1-.26,1.35-1.07a.76.76,0,0,1,.53-.49.89.89,0,0,1,.81.26,1.29,1.29,0,0,1,.07,1.91,9.67,9.67,0,0,1-1,.83c-.3.24-.59.46-.85.71a3.93,3.93,0,0,0-.8,5.15A2.6,2.6,0,0,1,14,14.3a3.15,3.15,0,0,1-2.4,1.52,4.39,4.39,0,0,1-.72.07c-.39,0-.76,0-.93.23a1.22,1.22,0,0,0-.18.87,1,1,0,0,1-.28.84,1.28,1.28,0,0,1-1.16.09,1.42,1.42,0,0,0-.58-.06.46.46,0,0,0-.05.21s.13.07.2.12a1.1,1.1,0,0,1,.53.86c0,.44-.46.77-.78,1a2,2,0,0,0-.49.76,2.85,2.85,0,0,1-1.22,1.47.43.43,0,0,0,0,.05A2.25,2.25,0,0,1,7,24c0,.73-.63,1.24-1.2,1.68-.41.32-.83.65-.88,1a1.13,1.13,0,0,1-.34.56l-.07.08a1.56,1.56,0,0,1-.14,1.44A1.18,1.18,0,0,1,3.42,29ZM6.83.78C6.29.78,6,1.15,5.51,2A23.41,23.41,0,0,0,3.19,8.59a5.51,5.51,0,0,0,0,1.62A5.43,5.43,0,0,1,3,12.79a18.57,18.57,0,0,0-1,5.1,16.49,16.49,0,0,0,0,2.54c.07,1.95.15,4-1.2,5.91a1.6,1.6,0,0,0,.29.73A2.32,2.32,0,0,0,2.6,28.16c.48.07,1.06.15,1.18,0s.13-.2,0-.84h0A.72.72,0,0,1,4,26.64l.15-.18c.09-.6.64-1,1.17-1.45s.91-.7.9-1.05-.33-.7-.93-1.15a.52.52,0,0,1-.18-.5c0-.18.1-.6.4-.73a2,2,0,0,0,.92-1.14,2.54,2.54,0,0,1,.78-1.08c.38-.24.42-.36.42-.36l-.24-.2A1,1,0,0,1,6.9,18a1,1,0,0,1,.37-.79,1.42,1.42,0,0,1,1.21-.07,2,2,0,0,0,.49.07s0-.07,0-.2a1.93,1.93,0,0,1,.38-1.44,2,2,0,0,1,1.48-.48,3.94,3.94,0,0,0,.6,0A2.43,2.43,0,0,0,13.27,14a1.88,1.88,0,0,0-.16-1.63,4.74,4.74,0,0,1,1-6.06c.29-.28.61-.53.91-.77a8.71,8.71,0,0,0,.91-.76.51.51,0,0,0,.17-.38.64.64,0,0,0-.22-.42l-.1-.06a2,2,0,0,1-2.09,1.58A1.28,1.28,0,0,1,12.58,5a1.15,1.15,0,0,1,.07-1.08,1.29,1.29,0,0,0,.12-.39s0,0,0,0A7.59,7.59,0,0,1,10.6,2.23,4.71,4.71,0,0,0,7.68.94H7.61l-.06,0A2.2,2.2,0,0,0,6.83.78ZM4.48,27.11ZM12.83,3.53h0Z"/><path class="cls-1" d="M5.46,31.56a.91.91,0,0,1-.67-.24c-.27-.26-.33-.69-.22-1.36l.07-.4,1,.65c.38.24.73.48,1.07.71l.61.4-.73.08-.39.07A4.31,4.31,0,0,1,5.46,31.56Z"/></g></g></svg>