<svg xmlns="http://www.w3.org/2000/svg" viewBox="0 0 24 24"><defs><style>.cls-1{fill:#fff;}</style></defs><title>Asset 3</title><g id="Layer_2" data-name="Layer 2"><g id="Layer_1-2" data-name="Layer 1"><path class="cls-1" d="M22.76,9.33H20.52a.85.85,0,0,1-.8-.53.83.83,0,0,1,.19-.94L21.5,6.27a1.23,1.23,0,0,0,0-1.74l-2-2a1.27,1.27,0,0,0-1.74,0L16.14,4.09a.86.86,0,0,1-1.47-.61V1.24A1.24,1.24,0,0,0,13.43,0H10.57A1.24,1.24,0,0,0,9.33,1.24V3.48a.86.86,0,0,1-1.47.61L6.27,2.5a1.27,1.27,0,0,0-1.74,0l-2,2a1.23,1.23,0,0,0,0,1.74L4.09,7.86a.83.83,0,0,1,.19.94.85.85,0,0,1-.8.53H1.24A1.24,1.24,0,0,0,0,10.57v2.86a1.24,1.24,0,0,0,1.24,1.24H3.48a.85.85,0,0,1,.8.53.83.83,0,0,1-.19.94L2.5,17.73a1.23,1.23,0,0,0,0,1.74l2,2a1.27,1.27,0,0,0,1.74,0l1.59-1.59a.83.83,0,0,1,.94-.19.85.85,0,0,1,.53.8v2.24A1.24,1.24,0,0,0,10.57,24h2.86a1.24,1.24,0,0,0,1.24-1.24V20.52a.86.86,0,0,1,1.47-.61l1.58,1.59a1.28,1.28,0,0,0,1.75,0l2-2a1.23,1.23,0,0,0,0-1.74l-1.59-1.59a.83.83,0,0,1-.19-.94.85.85,0,0,1,.8-.53h2.24A1.24,1.24,0,0,0,24,13.43V10.57A1.24,1.24,0,0,0,22.76,9.33Zm.35,4.1a.35.35,0,0,1-.35.35H20.52a1.75,1.75,0,0,0-1.24,3l1.59,1.58a.36.36,0,0,1,0,.49l-2,2a.36.36,0,0,1-.49,0l-1.58-1.59a1.75,1.75,0,0,0-3,1.24v2.24a.35.35,0,0,1-.35.35H10.57a.35.35,0,0,1-.35-.35V20.52A1.73,1.73,0,0,0,9.14,18.9a1.8,1.8,0,0,0-.68-.14,1.74,1.74,0,0,0-1.23.52L5.65,20.87a.36.36,0,0,1-.49,0l-2-2a.36.36,0,0,1,0-.49l1.59-1.58a1.75,1.75,0,0,0-1.24-3H1.24a.35.35,0,0,1-.35-.35V10.57a.35.35,0,0,1,.35-.35H3.48a1.75,1.75,0,0,0,1.24-3L3.13,5.65a.36.36,0,0,1,0-.49l2-2a.36.36,0,0,1,.49,0L7.23,4.72a1.75,1.75,0,0,0,3-1.24V1.24a.35.35,0,0,1,.35-.35h2.86a.35.35,0,0,1,.35.35V3.48a1.75,1.75,0,0,0,3,1.24l1.58-1.59a.36.36,0,0,1,.49,0l2,2a.36.36,0,0,1,0,.49L19.28,7.23a1.75,1.75,0,0,0,1.24,3h2.24a.35.35,0,0,1,.35.35Z"/><path class="cls-1" d="M12,8a4,4,0,1,0,4,4A4,4,0,0,0,12,8Zm0,7.11A3.11,3.11,0,1,1,15.11,12,3.11,3.11,0,0,1,12,15.11Z"/></g></g></svg>