<svg xmlns="http://www.w3.org/2000/svg" viewBox="0 0 29.62 30"><defs><style>.cls-1,.cls-2{fill:#fff;}.cls-1{opacity:0.75;}</style></defs><title>Asset 2</title><g id="Layer_2" data-name="Layer 2"><g id="Layer_1-2" data-name="Layer 1"><circle class="cls-1" cx="2.19" cy="2.19" r="2.19"/><circle class="cls-2" cx="6.96" cy="3.66" r="2.19"/><circle class="cls-2" cx="11.77" cy="5.5" r="2.19"/><circle class="cls-2" cx="6.72" cy="15.49" r="2.19"/><circle class="cls-2" cx="15.64" cy="3.66" r="1.44"/><circle class="cls-2" cx="5.52" cy="19.74" r="1.44"/><circle class="cls-2" cx="1.94" cy="26.51" r="1.44"/><circle class="cls-2" cx="1.94" cy="29.29" r="0.71"/><circle class="cls-1" cx="2.19" cy="7.21" r="2.19"/><circle class="cls-2" cx="7.63" cy="9.85" r="3.24"/><circle class="cls-1" cx="2.19" cy="12.22" r="2.19"/><circle class="cls-2" cx="2.19" cy="17.23" r="2.19"/><circle class="cls-2" cx="2.19" cy="22.25" r="2.19"/><path class="cls-2" d="M12,20.4,9.86,15h1l1.71,4.61L14.24,15h.87L13,20.4Z"/><path class="cls-2" d="M16,14V12.83h.91V14Zm0,6.43V15h.91V20.4Z"/><path class="cls-2" d="M23.09,20.4h-.91v-3a2.37,2.37,0,0,0-.26-1.26.9.9,0,0,0-.81-.4,1.64,1.64,0,0,0-.56.11,2.56,2.56,0,0,0-.53.3,2,2,0,0,0-.43.44,1.89,1.89,0,0,0-.28.57V20.4H18.4V15h.83v1.16a2.3,2.3,0,0,1,.92-.91,2.67,2.67,0,0,1,1.33-.35,1.49,1.49,0,0,1,.77.18,1.26,1.26,0,0,1,.5.47,2.29,2.29,0,0,1,.27.72,5.17,5.17,0,0,1,.07.91Z"/><path class="cls-2" d="M26.88,20.5a2.73,2.73,0,0,1-1.12-.22,2.83,2.83,0,0,1-.86-.62,2.62,2.62,0,0,1-.55-.89,3,3,0,0,1-.2-1.07,2.91,2.91,0,0,1,.2-1.07,3.18,3.18,0,0,1,.56-.9,2.8,2.8,0,0,1,.86-.61,2.79,2.79,0,0,1,2.22,0,2.58,2.58,0,0,1,.86.61,2.79,2.79,0,0,1,.56.9,2.72,2.72,0,0,1,.21,1.07,3,3,0,0,1-.2,1.07,2.64,2.64,0,0,1-.56.89,2.75,2.75,0,0,1-.87.62A2.65,2.65,0,0,1,26.88,20.5Zm-1.8-2.79a2.22,2.22,0,0,0,.14.79,2.29,2.29,0,0,0,.39.64,1.69,1.69,0,0,0,.57.42,1.61,1.61,0,0,0,1.4,0,1.72,1.72,0,0,0,.57-.43,1.9,1.9,0,0,0,.39-.64,2.1,2.1,0,0,0,.14-.8,2.07,2.07,0,0,0-.14-.78,1.9,1.9,0,0,0-.39-.64,1.72,1.72,0,0,0-.57-.43,1.53,1.53,0,0,0-.7-.16,1.67,1.67,0,0,0-.7.16,1.89,1.89,0,0,0-.57.44,2.1,2.1,0,0,0-.53,1.43Z"/><path class="cls-2" d="M12.64,27a2.09,2.09,0,0,1-.72-.12,1.85,1.85,0,0,1-.57-.36A1.63,1.63,0,0,1,11,26a1.6,1.6,0,0,1-.14-.67,1.39,1.39,0,0,1,.17-.67,1.58,1.58,0,0,1,.47-.53,2.46,2.46,0,0,1,.73-.34,3.28,3.28,0,0,1,.91-.12,4.33,4.33,0,0,1,.8.07,4.17,4.17,0,0,1,.72.19v-.43a1.41,1.41,0,0,0-.38-1A1.37,1.37,0,0,0,13.19,22a3,3,0,0,0-1.72.63l-.31-.59a3.76,3.76,0,0,1,2.11-.71,2.3,2.3,0,0,1,1.66.58,2.1,2.1,0,0,1,.6,1.6v2.21c0,.22.1.33.29.33v.79l-.24,0h-.2a.59.59,0,0,1-.43-.16.72.72,0,0,1-.19-.39l0-.38a2.38,2.38,0,0,1-.92.74A2.78,2.78,0,0,1,12.64,27Zm.24-.68a2.26,2.26,0,0,0,.9-.18,1.46,1.46,0,0,0,.64-.48.59.59,0,0,0,.2-.41v-.8a3.8,3.8,0,0,0-1.38-.26,2,2,0,0,0-1.12.29.91.91,0,0,0-.43.76A1,1,0,0,0,12,26a1.21,1.21,0,0,0,.38.23A1.4,1.4,0,0,0,12.88,26.3Z"/><path class="cls-2" d="M19.91,27a2.15,2.15,0,0,1-1.19-.33,2.53,2.53,0,0,1-.82-.84v3.28H17V21.47h.81v1a2.39,2.39,0,0,1,.84-.8,2.2,2.2,0,0,1,1.13-.31,2.36,2.36,0,0,1,1,.23,2.73,2.73,0,0,1,.81.62,3.1,3.1,0,0,1,.53.9,2.91,2.91,0,0,1,.19,1.05,3.57,3.57,0,0,1-.17,1.1,2.86,2.86,0,0,1-.5.89,2.5,2.5,0,0,1-.77.6A2.14,2.14,0,0,1,19.91,27Zm-.28-.78a1.6,1.6,0,0,0,.73-.17,2.06,2.06,0,0,0,.56-.46,2.14,2.14,0,0,0,.35-.65,2.11,2.11,0,0,0,.13-.75,2.07,2.07,0,0,0-.15-.77,1.9,1.9,0,0,0-.39-.64,2,2,0,0,0-.59-.44,1.74,1.74,0,0,0-.73-.16,1.64,1.64,0,0,0-.51.1,2.38,2.38,0,0,0-.5.26,2.07,2.07,0,0,0-.4.38,1.18,1.18,0,0,0-.23.48v1.54a2.72,2.72,0,0,0,.29.5,2.27,2.27,0,0,0,.41.41,2.12,2.12,0,0,0,.49.27A1.62,1.62,0,0,0,19.63,26.2Z"/><path class="cls-2" d="M26.37,27a2.15,2.15,0,0,1-1.19-.33,2.53,2.53,0,0,1-.82-.84v3.28h-.91V21.47h.81v1a2.39,2.39,0,0,1,.84-.8,2.2,2.2,0,0,1,1.13-.31,2.36,2.36,0,0,1,1,.23,2.73,2.73,0,0,1,.81.62,3.1,3.1,0,0,1,.53.9,2.91,2.91,0,0,1,.19,1.05,3.57,3.57,0,0,1-.17,1.1,2.86,2.86,0,0,1-.5.89,2.5,2.5,0,0,1-.77.6A2.17,2.17,0,0,1,26.37,27Zm-.28-.78a1.6,1.6,0,0,0,.73-.17,2.06,2.06,0,0,0,.56-.46,2.14,2.14,0,0,0,.35-.65,2.11,2.11,0,0,0,.13-.75,2.07,2.07,0,0,0-.15-.77,1.9,1.9,0,0,0-.39-.64,2,2,0,0,0-.59-.44,1.74,1.74,0,0,0-.73-.16,1.64,1.64,0,0,0-.51.1,2.38,2.38,0,0,0-.5.26,2.07,2.07,0,0,0-.4.38,1.18,1.18,0,0,0-.23.48v1.54a2.72,2.72,0,0,0,.29.5,2.27,2.27,0,0,0,.41.41,2.12,2.12,0,0,0,.49.27A1.62,1.62,0,0,0,26.09,26.2Z"/></g></g></svg>