<svg xmlns="http://www.w3.org/2000/svg" viewBox="0 0 18.09 23.44"><defs><style>.cls-1{fill:#fff;}</style></defs><title>Asset 1</title><g id="Layer_2" data-name="Layer 2"><g id="Layer_1-2" data-name="Layer 1"><path class="cls-1" d="M18.09,10.1a3.72,3.72,0,0,0-3.74-3.74,3.8,3.8,0,0,0-2.67,1.13A3.37,3.37,0,0,0,9.6,6.42a3.75,3.75,0,0,1,3.68-3.26.51.51,0,0,0,.54-.53.51.51,0,0,0-.54-.53A4.82,4.82,0,0,0,10,3.43,3.88,3.88,0,0,0,8.8,1.24,4.54,4.54,0,0,0,5.23,0C5,0,4.8.23,4.75.5A4.3,4.3,0,0,0,6,4.07a6.6,6.6,0,0,0,.8.64.57.57,0,0,0,.74-.16.57.57,0,0,0-.16-.75,1.54,1.54,0,0,1-.58-.48A3,3,0,0,1,5.82,1a3.18,3.18,0,0,1,2.29.91A3.36,3.36,0,0,1,9,4.71.18.18,0,0,1,9,4.87a.8.8,0,0,1-.16.32A4.68,4.68,0,0,0,8.48,6.9.51.51,0,0,0,9,7.43,2.67,2.67,0,1,1,6.35,10.1a2.54,2.54,0,0,1,.91-2,.53.53,0,0,0-.7-.8l-.16.16A3.77,3.77,0,0,0,3.73,6.36a3.74,3.74,0,0,0,0,7.47A3.12,3.12,0,0,0,5,13.62a.55.55,0,0,0,.32-.69.54.54,0,0,0-.69-.32,2.91,2.91,0,0,1-.91.16,2.67,2.67,0,1,1,2-4.38,3.83,3.83,0,0,0-.43,1.71A3.74,3.74,0,0,0,8.8,13.83,2.42,2.42,0,0,1,9,14.9a2.66,2.66,0,0,1-5.29.43.55.55,0,0,0-.64-.43.55.55,0,0,0-.42.64,3.69,3.69,0,0,0,2.83,3,2.87,2.87,0,0,0-.22,1.17A3.72,3.72,0,0,0,9,23.44a3.78,3.78,0,0,0,3.68-3.1.6.6,0,0,0-.43-.64.58.58,0,0,0-.64.43,2.66,2.66,0,0,1-5.28-.43,3.63,3.63,0,0,1,.21-1.06,3.74,3.74,0,0,0,3.52-3.74,2.83,2.83,0,0,0-.21-1.17,3.73,3.73,0,0,0,2.88-3.63,3.5,3.5,0,0,0-.43-1.71,2.66,2.66,0,1,1,2,4.38,2.91,2.91,0,0,1-.91-.16.54.54,0,1,0-.37,1,5.16,5.16,0,0,0,1,.21,2.42,2.42,0,0,1,.22,1.07,2.67,2.67,0,0,1-3.58,2.51.55.55,0,0,0-.69.32.54.54,0,0,0,.32.69,3.33,3.33,0,0,0,1.23.22,3.71,3.71,0,0,0,3.73-3.74,2.83,2.83,0,0,0-.21-1.17A3.72,3.72,0,0,0,18.09,10.1Z"/></g></g></svg>