<svg xmlns="http://www.w3.org/2000/svg" viewBox="0 0 24 24"><defs><style>.cls-1{fill:#fff;}</style></defs><title>Asset 5</title><g id="Layer_2" data-name="Layer 2"><g id="Layer_1-2" data-name="Layer 1"><path class="cls-1" d="M24,12A12,12,0,1,0,3.89,20.84h0l.39.33.08.06.64.49.21.15.72.46.16.09c.27.15.54.3.82.43l.06,0a12.34,12.34,0,0,0,2.91.92H10c.31.05.63.1,1,.13H11c.32,0,.65,0,1,0s.65,0,1,0h.12c.32,0,.64-.07.95-.13h.08a11.92,11.92,0,0,0,2.86-.9l.1,0c.27-.13.54-.27.79-.41l.2-.11.69-.44.24-.17c.19-.14.38-.28.56-.43l.12-.09.4-.34h0A12,12,0,0,0,24,12ZM.87,12a11.13,11.13,0,1,1,18.51,8.32,4.11,4.11,0,0,0-.39-.24l-3.7-1.84a1,1,0,0,1-.53-.87V16.08l.27-.36a9.27,9.27,0,0,0,1.14-2.24,1.58,1.58,0,0,0,.91-1.43V10.5a1.57,1.57,0,0,0-.39-1v-2a3.57,3.57,0,0,0-.82-2.56A4.94,4.94,0,0,0,12,3.49,4.94,4.94,0,0,0,8.13,4.87a3.57,3.57,0,0,0-.82,2.56v2a1.57,1.57,0,0,0-.39,1v1.55a1.58,1.58,0,0,0,.59,1.23,8.22,8.22,0,0,0,1.35,2.79v1.26a1,1,0,0,1-.51.86L4.9,20.07a3,3,0,0,0-.33.21A11.11,11.11,0,0,1,.87,12Zm17.66,9-.47.32a1.64,1.64,0,0,1-.22.14c-.2.13-.41.25-.63.37l-.14.07a10.64,10.64,0,0,1-1.52.64l-.06,0c-.27.09-.55.17-.83.24h0c-.28.07-.57.13-.86.18h0a7.35,7.35,0,0,1-.82.1h-.14c-.27,0-.55,0-.82,0s-.55,0-.83,0H11a7.35,7.35,0,0,1-.82-.1h0a9.82,9.82,0,0,1-1.7-.42l-.05,0a7.94,7.94,0,0,1-.81-.31h0c-.25-.11-.5-.23-.74-.36l-.1-.05c-.22-.12-.44-.24-.65-.38l-.19-.12c-.2-.13-.4-.26-.59-.41l-.06,0,.05,0L8.77,19a1.84,1.84,0,0,0,1-1.62V15.76l-.1-.12a7.34,7.34,0,0,1-1.31-2.71l0-.18-.15-.09a.74.74,0,0,1-.34-.61V10.5A.7.7,0,0,1,8,10l.14-.13V7.35a2.63,2.63,0,0,1,.61-1.9A4.1,4.1,0,0,1,12,4.36a4.17,4.17,0,0,1,3.21,1.08,2.69,2.69,0,0,1,.61,1.91V9.84L16,10a.7.7,0,0,1,.25.53v1.55a.75.75,0,0,1-.52.69l-.22.06L15.4,13a7.8,7.8,0,0,1-1.09,2.2,3.93,3.93,0,0,1-.32.41l-.11.12v1.62a1.86,1.86,0,0,0,1,1.65l3.7,1.84.07,0Z"/></g></g></svg>