<svg xmlns="http://www.w3.org/2000/svg" viewBox="0 0 22 19.41"><defs><style>.cls-1{fill:#ee4036;}</style></defs><title>Asset 9</title><g id="Layer_2" data-name="Layer 2"><g id="Layer_1-2" data-name="Layer 1"><path class="cls-1" d="M8.51,15.43h-5a.49.49,0,0,0-.49.5.5.5,0,0,0,.49.5h5a.5.5,0,0,0,.5-.5A.5.5,0,0,0,8.51,15.43Z"/><path class="cls-1" d="M16,15.43H11a.5.5,0,0,0-.5.5.51.51,0,0,0,.5.5h5a.5.5,0,0,0,.49-.5A.49.49,0,0,0,16,15.43Z"/><path class="cls-1" d="M16,3H3.48a.5.5,0,0,0,0,1H16a.5.5,0,0,0,0-1Z"/><path class="cls-1" d="M16,5.48H11a.5.5,0,1,0,0,1h5a.5.5,0,0,0,0-1Z"/><path class="cls-1" d="M16,8H11a.51.51,0,0,0-.5.5A.5.5,0,0,0,11,9h5a.49.49,0,0,0,.49-.5A.5.5,0,0,0,16,8Z"/><path class="cls-1" d="M16,10.45H11a.51.51,0,0,0-.5.5.5.5,0,0,0,.5.5h5a.49.49,0,0,0,.49-.5A.5.5,0,0,0,16,10.45Z"/><path class="cls-1" d="M16,12.94H11a.5.5,0,0,0-.5.5.51.51,0,0,0,.5.5h5a.5.5,0,0,0,.49-.5A.49.49,0,0,0,16,12.94Z"/><path class="cls-1" d="M8.51,12.94h-5a.49.49,0,0,0-.49.5.5.5,0,0,0,.49.5h5a.5.5,0,0,0,.5-.5A.5.5,0,0,0,8.51,12.94Z"/><path class="cls-1" d="M8.51,5.48h-5A.49.49,0,0,0,3,6v5a.5.5,0,0,0,.49.5h5A.5.5,0,0,0,9,11V6A.49.49,0,0,0,8.51,5.48Zm-.5,5H4v-4H8Z"/><path class="cls-1" d="M21,2.49H19.51V1a1,1,0,0,0-1-1H1A1,1,0,0,0,0,1V16.92a2.49,2.49,0,0,0,2.49,2.49h17A2.49,2.49,0,0,0,22,16.92V3.48A1,1,0,0,0,21,2.49Zm0,14.43a1.5,1.5,0,0,1-1.49,1.5h-17A1.5,1.5,0,0,1,1,16.92V1H18.52V16.18a1.24,1.24,0,0,0,1.24,1.24.5.5,0,1,0,0-1,.25.25,0,0,1-.25-.25V3.48H21Z"/></g></g></svg>